<?xml version="1.0" standalone="no"?>
<!DOCTYPE svg PUBLIC "-//W3C//DTD SVG 20010904//EN"
 "http://www.w3.org/TR/2001/REC-SVG-20010904/DTD/svg10.dtd">
<svg version="1.0" xmlns="http://www.w3.org/2000/svg"
 width="348.000000pt" height="348.000000pt" viewBox="0 0 348.000000 348.000000"
 preserveAspectRatio="xMidYMid meet">
<metadata>
Created by potrace 1.14, written by Peter Selinger 2001-2017
</metadata>
<g transform="translate(0.000000,348.000000) scale(0.100000,-0.100000)"
fill="#000000" stroke="none">
<path d="M770 3221 c-82 -25 -163 -88 -225 -176 -119 -167 -209 -464 -173
-575 25 -78 63 -106 248 -181 74 -30 146 -64 161 -76 41 -35 54 -76 40 -123
-23 -76 -101 -89 -286 -48 -27 6 -58 15 -67 19 -80 42 -351 20 -419 -34 -28
-22 -49 -62 -44 -87 2 -14 6 -51 10 -82 18 -167 89 -305 208 -406 94 -78 162
-92 393 -81 60 3 75 1 93 -15 45 -40 23 -76 -99 -157 -78 -52 -87 -60 -100
-94 -22 -57 47 -137 152 -177 203 -77 407 -96 528 -49 56 21 155 89 156 106 5
108 56 274 115 383 74 133 155 224 455 510 66 62 137 138 159 168 22 31 52 70
66 87 78 93 147 266 143 355 -9 182 -24 237 -95 342 -38 56 -109 130 -143 148
-26 13 -66 -1 -137 -49 -89 -60 -156 -135 -195 -219 -101 -214 -147 -284 -202
-307 -32 -13 -39 -13 -68 1 -77 36 -80 103 -14 305 47 146 54 187 39 247 -16
63 -74 116 -183 169 -167 80 -416 126 -516 96z"/>
<path d="M2359 2613 c-21 -5 -28 -30 -18 -63 26 -90 -5 -237 -77 -369 -68
-123 -118 -180 -440 -492 -60 -58 -123 -121 -139 -140 -228 -256 -309 -595
-204 -860 86 -218 372 -387 738 -436 64 -9 292 -9 376 0 382 39 686 189 797
393 50 92 68 183 64 318 -9 275 -112 468 -383 723 -241 225 -339 326 -381 392
-41 63 -77 146 -87 198 -3 16 -7 39 -10 53 -7 32 -7 137 -1 170 15 74 14 80
-2 89 -9 5 -55 11 -102 14 -47 2 -92 7 -100 9 -8 3 -22 4 -31 1z m151 -734
c78 -105 234 -256 354 -344 23 -16 46 -34 52 -40 7 -5 43 -37 81 -70 169 -146
245 -280 259 -457 18 -217 -96 -377 -309 -437 -140 -39 -242 0 -388 150 l-76
78 -37 -42 c-56 -65 -165 -153 -226 -183 -158 -79 -395 13 -492 192 -77 143
-73 298 12 466 60 118 140 206 345 379 107 90 248 228 330 322 22 26 42 46 45
46 3 0 25 -27 50 -60z"/>
</g>
</svg>
